<svg width="483" height="565" viewBox="0 0 483 565" fill="none" xmlns="http://www.w3.org/2000/svg">
<mask id="path-1-outside-1_7_1821" maskUnits="userSpaceOnUse" x="-1" y="0" width="484" height="565" fill="black">
<rect fill="white" x="-1" width="484" height="565"/>
<path fill-rule="evenodd" clip-rule="evenodd" d="M15 213.855C19.5342 213.243 24.1039 212.932 28.7053 212.932C128.595 212.932 213.525 359.34 244.668 563.399C275.81 359.34 360.74 212.932 460.63 212.932C463.096 212.932 465.553 213.021 468 213.199C424.11 92.0845 339.185 10 241.619 10C143.876 10 58.821 92.3814 15 213.855Z"/>
</mask>
<path fill-rule="evenodd" clip-rule="evenodd" d="M15 213.855C19.5342 213.243 24.1039 212.932 28.7053 212.932C128.595 212.932 213.525 359.34 244.668 563.399C275.81 359.34 360.74 212.932 460.63 212.932C463.096 212.932 465.553 213.021 468 213.199C424.11 92.0845 339.185 10 241.619 10C143.876 10 58.821 92.3814 15 213.855Z" fill="url(#paint0_linear_7_1821)" fill-opacity="0.3"/>
<path d="M15 213.855L5.59338 210.462L-0.00228882 225.974L16.3391 223.765L15 213.855ZM244.668 563.399L234.782 564.908H254.553L244.668 563.399ZM468 213.199L467.278 223.172L482.654 224.285L477.402 209.792L468 213.199ZM16.3391 223.765C20.433 223.212 24.5553 222.932 28.7053 222.932V202.932C23.6525 202.932 18.6354 203.273 13.6609 203.946L16.3391 223.765ZM28.7053 222.932C73.3793 222.932 116.952 255.788 153.913 316.823C190.641 377.473 219.34 463.724 234.782 564.908L254.553 561.891C238.853 459.015 209.516 370.032 171.021 306.464C132.759 243.28 83.9213 202.932 28.7053 202.932V222.932ZM254.553 564.908C269.995 463.724 298.694 377.473 335.422 316.823C372.383 255.788 415.956 222.932 460.63 222.932V202.932C405.414 202.932 356.576 243.28 318.314 306.464C279.819 370.032 250.482 459.015 234.782 561.891L254.553 564.908ZM460.63 222.932C462.854 222.932 465.071 223.013 467.278 223.172L468.722 203.225C466.035 203.03 463.337 202.932 460.63 202.932V222.932ZM241.619 20C333.058 20 415.354 97.2755 458.598 216.606L477.402 209.792C432.865 86.8936 345.313 0 241.619 0V20ZM24.4067 217.249C67.5846 97.5576 150.014 20 241.619 20V0C137.737 0 50.0575 87.2053 5.59338 210.462L24.4067 217.249Z" fill="url(#paint1_linear_7_1821)" fill-opacity="0.5" mask="url(#path-1-outside-1_7_1821)"/>
<defs>
<linearGradient id="paint0_linear_7_1821" x1="241.5" y1="10" x2="241.5" y2="563.399" gradientUnits="userSpaceOnUse">
<stop offset="0.458333" stop-color="#D9D9D9" stop-opacity="0"/>
<stop offset="1" stop-color="#D9D9D9" stop-opacity="0.09"/>
</linearGradient>
<linearGradient id="paint1_linear_7_1821" x1="241.5" y1="10" x2="241.5" y2="563.399" gradientUnits="userSpaceOnUse">
<stop offset="0.395833" stop-opacity="0"/>
<stop offset="0.739583" stop-color="#35588A"/>
<stop offset="1" stop-color="#CEF0FF"/>
</linearGradient>
</defs>
</svg>
